<svg id="svg" version="1.1" xmlns="http://www.w3.org/2000/svg" xmlns:xlink="http://www.w3.org/1999/xlink" width="400" height="400" viewBox="0, 0, 400,400"><g id="svgg"><path id="path0" d="M170.224 49.609 C 165.241 51.555,160.400 59.890,160.400 66.525 C 160.400 70.809,159.162 70.976,155.275 67.219 C 146.772 58.997,136.400 66.373,136.400 80.641 C 136.400 96.566,153.564 103.155,158.693 89.200 C 159.379 87.331,159.862 85.297,161.039 79.300 C 161.279 78.077,162.030 78.170,163.391 79.591 C 165.586 81.881,170.432 82.777,174.462 81.636 C 178.163 80.589,179.913 78.941,182.041 74.500 C 184.032 70.345,185.586 70.577,185.598 75.031 C 185.602 76.581,190.240 82.833,192.604 84.477 C 195.613 86.568,198.500 86.819,202.877 85.372 C 209.485 83.186,212.480 64.653,207.076 59.395 C 206.594 58.926,205.532 57.720,204.717 56.715 C 199.391 50.154,190.557 52.987,186.038 62.703 C 184.907 65.137,184.404 65.067,184.390 62.476 C 184.361 56.873,180.305 51.144,175.264 49.587 C 172.244 48.654,172.674 48.652,170.224 49.609 M175.918 54.651 C 177.271 55.522,179.048 63.428,178.199 64.801 C 178.054 65.036,177.770 66.399,177.567 67.831 C 176.467 75.602,170.042 80.499,167.013 75.877 C 161.087 66.832,168.266 49.721,175.918 54.651 M200.230 58.753 C 203.023 60.456,204.464 71.691,202.464 76.168 C 198.671 84.661,192.837 83.030,191.036 72.974 C 189.311 63.340,194.526 55.274,200.230 58.753 M150.998 68.962 C 153.743 70.760,154.779 83.058,152.556 87.452 C 149.731 93.035,145.377 93.459,142.812 88.400 C 137.783 78.479,143.781 64.233,150.998 68.962 M122.052 88.281 C 111.490 92.014,114.443 117.099,125.780 119.953 C 134.971 122.268,140.275 116.482,139.854 104.600 C 139.523 95.264,129.164 85.768,122.052 88.281 M127.847 93.229 C 131.342 95.389,134.556 106.516,133.020 111.139 C 130.868 117.619,125.347 116.914,121.799 109.708 C 117.004 99.966,121.024 89.012,127.847 93.229 M186.000 102.662 C 168.567 104.333,158.993 106.847,152.108 111.564 C 148.003 114.376,142.729 119.088,141.695 120.866 C 140.075 123.654,138.389 125.195,135.380 126.636 C 129.426 129.487,125.093 134.906,123.252 141.800 C 121.930 146.752,122.075 154.690,123.773 170.400 C 125.492 186.302,126.759 199.709,127.185 206.501 C 127.388 209.747,127.645 212.549,127.756 212.729 C 127.867 212.908,128.236 217.152,128.576 222.160 C 128.916 227.169,129.284 231.412,129.393 231.589 C 129.503 231.767,129.780 235.397,130.009 239.656 C 130.238 243.915,130.604 248.529,130.822 249.908 C 131.040 251.288,131.394 256.508,131.609 261.508 C 131.824 266.509,132.177 271.673,132.393 272.985 C 132.609 274.297,132.888 277.267,133.012 279.585 C 133.846 295.094,139.332 312.092,147.432 324.265 C 165.234 351.021,201.315 348.025,226.320 317.714 C 236.714 305.115,239.459 297.109,245.011 263.200 C 246.442 254.462,248.494 244.484,251.223 233.000 C 253.831 222.027,253.739 222.629,253.026 221.251 C 251.863 219.001,249.417 218.489,248.062 220.212 C 247.324 221.151,246.781 223.080,244.747 232.000 C 242.708 240.942,238.866 261.467,236.586 275.600 C 234.114 290.918,230.926 299.777,224.155 310.139 C 217.155 320.851,202.783 331.736,190.800 335.402 C 189.590 335.773,187.790 336.342,186.800 336.667 C 184.471 337.432,175.862 337.841,174.000 337.275 C 162.870 333.890,155.954 328.871,150.203 320.010 C 141.704 306.914,138.257 293.887,136.810 269.400 C 136.166 258.490,135.232 245.514,134.579 238.400 C 134.246 234.770,133.805 228.867,133.599 225.281 C 133.393 221.696,133.140 218.627,133.037 218.460 C 132.935 218.294,132.656 215.108,132.417 211.379 C 132.179 207.651,131.804 203.485,131.584 202.123 C 131.364 200.760,131.009 196.879,130.794 193.497 C 130.579 190.116,130.133 185.561,129.804 183.375 C 129.474 181.189,129.203 178.140,129.201 176.600 C 129.199 175.060,128.936 172.180,128.618 170.200 C 127.998 166.345,127.280 158.426,126.931 151.600 C 126.403 141.283,130.051 134.307,137.918 130.589 C 141.569 128.863,142.022 128.472,145.720 123.842 C 151.336 116.814,156.446 113.437,165.400 110.839 C 170.429 109.379,174.992 108.400,176.763 108.400 C 177.719 108.400,180.152 108.118,182.171 107.774 C 199.042 104.899,207.015 111.317,205.037 126.183 C 202.570 144.721,207.147 155.580,218.686 158.571 C 222.542 159.570,223.938 159.408,227.466 157.550 C 237.012 152.525,242.017 145.393,248.481 127.600 C 254.170 111.940,263.297 108.512,271.300 119.029 C 276.715 126.147,277.098 141.999,272.250 158.400 C 271.320 161.547,270.938 162.616,268.967 167.600 C 267.820 170.499,263.379 178.969,261.469 181.899 C 256.206 189.973,254.533 195.820,257.019 197.449 C 259.120 198.826,260.333 197.919,262.712 193.194 C 263.873 190.887,266.206 186.570,267.897 183.600 C 273.273 174.153,274.906 170.600,277.459 162.800 C 284.205 142.184,283.574 123.735,275.845 115.662 C 263.260 102.517,250.959 106.528,244.094 126.014 C 239.689 138.516,237.055 143.300,231.601 148.704 C 227.170 153.094,222.399 154.616,219.119 152.688 C 212.049 148.531,209.755 141.557,211.196 128.600 C 212.067 120.766,212.113 119.514,211.629 116.804 C 210.033 107.878,198.424 101.472,186.000 102.662 M254.137 200.872 C 253.245 201.303,251.985 204.249,250.917 208.400 C 250.605 209.610,250.154 211.354,249.914 212.276 C 248.956 215.947,253.821 218.124,255.591 214.816 C 256.211 213.658,258.800 204.366,258.800 203.298 C 258.800 201.217,256.210 199.869,254.137 200.872 " stroke="none" fill="#373434" fill-rule="evenodd"></path><path id="path1" d="M170.753 48.953 C 165.007 51.004,160.000 59.048,160.000 66.228 C 160.000 69.761,158.649 69.930,155.581 66.780 C 149.888 60.935,142.687 62.183,138.710 69.703 C 138.099 70.856,137.600 72.049,137.600 72.354 C 137.600 72.658,138.234 71.641,139.008 70.093 C 142.812 62.489,149.214 61.358,155.275 67.219 C 159.162 70.976,160.400 70.809,160.400 66.525 C 160.400 59.795,165.268 51.480,170.313 49.592 L 172.532 48.762 175.166 49.562 C 180.290 51.119,184.361 56.817,184.390 62.476 C 184.404 65.067,184.907 65.137,186.038 62.703 C 187.290 60.011,190.826 55.708,192.935 54.308 C 193.851 53.701,194.452 53.203,194.272 53.202 C 193.642 53.198,190.589 55.529,189.297 57.000 C 187.539 59.002,186.755 58.636,181.322 53.277 C 177.305 49.314,173.780 47.872,170.753 48.953 M195.900 53.089 C 196.615 53.178,197.785 53.178,198.500 53.089 C 199.215 53.001,198.630 52.928,197.200 52.928 C 195.770 52.928,195.185 53.001,195.900 53.089 M201.526 54.055 C 202.475 54.525,203.915 55.727,204.726 56.726 C 205.537 57.725,206.594 58.926,207.076 59.395 C 212.480 64.653,209.485 83.186,202.877 85.372 C 198.500 86.819,195.613 86.568,192.604 84.477 C 190.240 82.833,185.602 76.581,185.598 75.031 C 185.586 70.577,184.032 70.345,182.041 74.500 C 179.913 78.941,178.163 80.589,174.462 81.636 C 170.432 82.777,165.586 81.881,163.391 79.591 C 162.030 78.170,161.279 78.077,161.039 79.300 C 158.463 92.424,156.953 95.064,151.262 96.397 C 144.945 97.877,139.654 94.074,137.354 86.400 C 136.859 84.750,136.442 83.770,136.427 84.222 C 136.216 90.618,143.579 97.721,149.703 97.028 C 151.076 96.873,153.640 96.618,155.400 96.461 C 161.102 95.954,163.950 92.742,164.600 86.087 C 165.003 81.949,165.379 81.661,169.328 82.454 C 171.205 82.831,171.986 82.797,173.921 82.254 C 175.203 81.894,177.191 81.600,178.339 81.600 C 180.732 81.600,182.462 80.975,184.258 79.461 C 185.999 77.993,186.520 78.112,188.166 80.353 C 192.550 86.326,194.424 86.997,204.310 86.135 C 208.815 85.743,208.823 85.740,210.440 84.171 C 216.294 78.491,215.854 65.944,209.620 60.797 C 208.689 60.029,206.920 58.358,205.687 57.085 C 203.377 54.698,201.319 53.200,200.353 53.200 C 200.049 53.200,200.577 53.585,201.526 54.055 M170.278 54.828 C 168.410 56.068,166.001 59.441,166.013 60.800 C 166.015 61.130,166.350 60.668,166.756 59.774 C 168.461 56.021,171.793 53.571,174.099 54.374 C 176.772 55.306,177.573 57.302,176.055 59.246 C 173.617 62.368,172.159 68.029,172.579 72.746 C 173.039 77.910,169.468 79.082,166.767 74.653 C 166.347 73.964,166.003 73.580,166.003 73.800 C 166.003 75.915,169.506 78.270,171.577 77.548 C 174.068 76.680,176.984 71.951,177.567 67.831 C 177.770 66.399,178.054 65.036,178.199 64.801 C 178.500 64.314,177.692 57.447,177.178 56.121 C 176.239 53.703,172.912 53.080,170.278 54.828 M194.720 58.691 C 193.666 59.345,191.600 62.605,191.600 63.614 C 191.600 63.892,192.058 63.237,192.619 62.160 C 194.619 58.312,197.936 57.099,200.218 59.382 C 201.518 60.682,201.457 61.767,199.900 65.055 C 198.607 67.785,198.600 67.835,198.600 74.000 C 198.600 80.665,198.478 81.200,196.962 81.200 C 195.044 81.200,192.991 78.992,191.943 75.800 C 191.684 75.013,191.679 75.013,191.640 75.822 C 191.590 76.853,193.610 80.081,194.847 80.948 C 198.772 83.697,203.314 78.077,203.371 70.400 C 203.444 60.744,199.662 55.626,194.720 58.691 M165.264 63.144 C 164.634 65.248,164.731 70.285,165.436 72.000 C 165.752 72.770,165.906 72.950,165.777 72.400 C 165.234 70.086,165.123 65.528,165.566 63.768 C 166.141 61.485,165.906 61.000,165.264 63.144 M190.874 67.100 C 190.526 69.168,190.535 70.406,190.911 72.389 L 191.402 74.978 191.401 69.689 C 191.401 66.780,191.384 64.400,191.364 64.400 C 191.344 64.400,191.124 65.615,190.874 67.100 M146.157 68.391 C 142.372 69.921,139.897 78.153,141.405 84.200 C 143.634 93.142,148.900 94.677,152.556 87.452 C 155.259 82.109,153.266 68.281,149.811 68.416 C 149.585 68.425,149.893 68.699,150.495 69.026 C 152.163 69.931,152.261 71.188,150.872 73.875 C 148.644 78.185,147.956 83.171,149.021 87.281 C 150.355 92.427,146.195 93.428,143.404 88.632 C 139.287 81.557,141.796 69.580,147.636 68.434 C 149.013 68.164,149.137 68.084,148.200 68.069 C 147.540 68.059,146.621 68.204,146.157 68.391 M136.881 74.688 C 136.616 75.571,136.416 76.632,136.436 77.046 C 136.455 77.461,136.722 76.900,137.028 75.800 C 137.696 73.395,137.565 72.404,136.881 74.688 M136.131 80.600 C 136.133 82.140,136.205 82.721,136.292 81.891 C 136.379 81.061,136.377 79.801,136.289 79.091 C 136.200 78.381,136.129 79.060,136.131 80.600 M121.400 88.171 C 118.503 89.511,115.535 93.391,115.616 95.733 C 115.625 95.990,116.030 95.294,116.516 94.187 C 120.071 86.091,126.785 85.434,133.638 92.511 C 139.386 98.446,140.775 102.640,139.561 110.400 C 138.664 116.131,136.997 118.457,132.956 119.613 C 125.444 121.761,120.082 118.455,116.643 109.555 C 116.100 108.150,115.643 107.191,115.628 107.424 C 115.493 109.484,118.753 115.101,121.691 117.869 C 124.947 120.938,126.044 121.133,134.200 120.103 C 138.494 119.561,140.400 119.862,140.400 121.084 C 140.400 122.868,138.651 124.608,135.109 126.348 C 122.761 132.412,120.202 141.666,123.201 169.400 C 124.988 185.924,125.374 189.907,126.419 202.600 C 126.872 208.113,128.003 220.213,128.175 221.400 C 128.239 221.840,128.310 221.120,128.332 219.800 C 128.355 218.480,128.195 216.140,127.977 214.600 C 127.759 213.060,127.416 209.370,127.214 206.400 C 126.760 199.703,125.376 185.227,123.773 170.400 C 122.075 154.690,121.930 146.752,123.252 141.800 C 125.093 134.906,129.426 129.487,135.380 126.636 C 138.389 125.195,140.075 123.654,141.695 120.866 C 142.729 119.088,148.003 114.376,152.108 111.564 C 159.133 106.752,171.175 103.681,187.200 102.615 C 199.123 101.822,210.089 108.192,211.629 116.804 C 212.113 119.514,212.067 120.766,211.196 128.600 C 210.026 139.120,211.290 145.581,215.313 149.630 C 219.001 153.343,222.080 154.407,225.000 152.976 C 225.660 152.653,225.840 152.493,225.400 152.622 C 220.630 154.020,217.251 151.959,215.990 146.884 C 215.172 143.591,215.038 133.455,215.763 129.656 C 217.360 121.275,215.757 116.164,209.948 111.117 C 208.608 109.953,206.788 108.338,205.904 107.529 C 199.478 101.647,189.435 100.758,170.000 104.351 C 161.160 105.985,153.034 109.579,148.200 113.993 C 144.513 117.359,143.264 117.060,143.974 112.981 C 145.201 105.937,143.119 101.027,135.906 93.953 C 129.022 87.201,126.055 86.018,121.400 88.171 M122.416 93.448 C 117.856 97.285,119.239 108.956,124.863 114.100 C 128.966 117.853,134.190 113.576,133.462 107.058 C 132.241 96.123,126.964 89.621,122.416 93.448 M128.010 93.952 L 129.391 95.105 128.867 96.852 C 128.580 97.814,128.075 99.500,127.745 100.600 C 126.991 103.119,127.285 107.732,128.403 110.912 C 130.090 115.712,128.009 116.869,124.512 113.075 C 117.057 104.987,120.259 87.481,128.010 93.952 M115.357 101.600 C 115.357 104.570,115.420 105.785,115.497 104.300 C 115.574 102.815,115.574 100.385,115.497 98.900 C 115.420 97.415,115.357 98.630,115.357 101.600 M181.800 107.810 C 180.260 108.107,178.126 108.362,177.057 108.375 C 174.913 108.403,169.002 109.706,170.072 109.916 C 170.441 109.988,171.689 109.767,172.844 109.424 C 174.048 109.066,176.494 108.794,178.573 108.786 C 180.568 108.778,183.280 108.511,184.600 108.192 C 187.340 107.530,192.706 107.420,193.600 108.006 C 194.731 108.749,193.173 109.187,189.380 109.194 C 187.372 109.197,185.571 109.389,185.336 109.624 C 185.103 109.857,182.862 110.390,180.356 110.809 C 177.850 111.227,174.540 112.038,173.000 112.611 C 171.460 113.184,169.480 113.852,168.600 114.095 C 164.380 115.264,159.526 119.193,152.149 127.413 C 149.592 130.263,148.329 131.320,146.176 132.412 C 140.170 135.461,135.617 141.559,134.690 147.794 C 134.241 150.823,134.884 165.120,135.614 168.299 C 135.828 169.233,136.173 172.743,136.381 176.099 C 136.588 179.455,136.940 183.132,137.163 184.270 C 137.386 185.409,137.755 189.279,137.984 192.870 C 138.213 196.462,138.579 200.480,138.797 201.800 C 139.016 203.120,139.296 206.180,139.421 208.600 C 139.546 211.020,139.904 215.250,140.218 218.000 C 140.532 220.750,140.966 225.610,141.183 228.800 C 141.400 231.990,142.030 239.820,142.583 246.200 C 143.136 252.580,143.767 260.950,143.986 264.800 C 145.649 293.999,148.118 306.676,154.294 317.738 C 155.012 319.025,155.600 320.159,155.600 320.258 C 155.600 320.587,160.850 328.383,161.229 328.618 C 161.623 328.861,161.753 330.400,161.380 330.400 C 159.503 330.400,154.141 325.187,150.683 320.000 C 144.132 310.174,140.030 298.012,138.609 284.200 C 138.473 282.880,138.186 280.270,137.970 278.400 C 137.755 276.530,137.319 270.770,137.002 265.600 C 136.177 252.158,135.666 245.100,134.989 237.800 C 134.663 234.280,134.299 229.510,134.182 227.200 C 134.064 224.890,133.704 220.570,133.382 217.600 C 133.060 214.630,132.737 211.480,132.665 210.600 C 132.566 209.390,132.518 209.555,132.467 211.280 C 132.430 212.533,132.653 215.593,132.963 218.080 C 133.273 220.566,133.636 224.850,133.769 227.600 C 133.903 230.350,134.270 235.210,134.586 238.400 C 135.168 244.272,135.574 249.950,136.605 266.600 C 138.321 294.321,141.413 306.466,150.203 320.010 C 155.954 328.871,162.870 333.890,174.000 337.275 C 175.862 337.841,184.471 337.432,186.800 336.667 C 187.790 336.342,189.590 335.773,190.800 335.402 C 202.783 331.736,217.155 320.851,224.155 310.139 C 230.926 299.777,234.114 290.918,236.586 275.600 C 238.866 261.467,242.708 240.942,244.747 232.000 C 246.781 223.080,247.324 221.151,248.062 220.212 C 249.417 218.489,251.863 219.001,253.026 221.251 C 253.739 222.629,253.831 222.027,251.223 233.000 C 248.494 244.484,246.442 254.462,245.011 263.200 C 239.459 297.109,236.714 305.115,226.320 317.714 C 207.679 340.310,181.813 348.585,162.487 338.135 C 150.237 331.512,140.606 316.795,135.768 297.308 C 135.373 295.718,134.972 294.495,134.876 294.591 C 134.412 295.055,137.352 304.747,139.792 310.800 C 149.675 335.316,165.545 345.194,190.646 342.454 C 215.746 339.713,240.464 315.513,245.653 288.600 C 245.865 287.500,246.298 285.430,246.615 284.000 C 246.932 282.570,247.374 279.745,247.597 277.722 C 247.820 275.700,248.160 273.630,248.352 273.122 C 248.544 272.615,248.835 270.864,248.998 269.232 C 249.161 267.600,249.465 265.710,249.672 265.032 C 249.880 264.354,250.294 262.180,250.592 260.200 C 250.890 258.220,251.316 255.790,251.538 254.800 C 251.759 253.810,252.339 250.750,252.825 248.000 C 255.325 233.863,259.336 217.585,263.043 206.529 C 266.343 196.685,268.640 191.438,272.049 185.949 C 277.493 177.184,282.925 163.821,284.791 154.600 C 285.923 149.006,286.042 147.374,285.924 139.000 C 285.786 129.222,285.384 127.253,282.515 122.324 C 280.611 119.054,269.968 109.282,268.237 109.214 C 268.038 109.206,269.118 110.077,270.637 111.149 C 273.956 113.490,277.986 117.616,279.096 119.808 C 282.665 126.855,282.955 141.271,279.794 154.561 C 277.268 165.182,274.414 172.149,267.897 183.600 C 266.206 186.570,263.873 190.887,262.712 193.194 C 260.333 197.919,259.120 198.826,257.019 197.449 C 254.533 195.820,256.206 189.973,261.469 181.899 C 263.379 178.969,267.820 170.499,268.967 167.600 C 270.938 162.616,271.320 161.547,272.250 158.400 C 276.049 145.547,276.707 131.192,273.840 123.715 C 271.756 118.279,266.579 113.303,262.686 112.993 L 260.600 112.827 262.591 113.193 C 265.877 113.798,266.435 115.292,264.080 117.183 C 261.423 119.319,256.408 127.127,256.402 129.140 C 256.401 129.436,256.153 130.246,255.850 130.940 C 255.548 131.633,254.720 133.730,254.011 135.600 C 248.120 151.131,239.897 159.866,230.923 160.128 C 226.717 160.250,226.698 158.874,230.867 156.095 C 237.626 151.589,242.414 144.705,246.818 133.160 C 251.491 120.912,252.267 119.382,255.203 116.636 C 256.309 115.601,257.976 114.409,258.907 113.986 C 259.838 113.563,260.368 113.214,260.084 113.209 C 256.485 113.147,251.473 119.363,248.481 127.600 C 240.122 150.610,229.714 161.428,218.686 158.571 C 207.147 155.580,202.570 144.721,205.037 126.183 C 207.010 111.356,198.456 104.592,181.800 107.810 M256.400 108.890 C 250.682 111.631,246.423 117.532,243.184 127.200 C 239.255 138.925,234.167 147.042,228.246 151.029 C 227.127 151.783,226.406 152.400,226.645 152.400 C 227.331 152.400,230.287 150.130,232.277 148.076 C 237.175 143.018,239.886 137.958,244.094 126.014 C 247.527 116.269,251.500 111.204,257.595 108.802 C 260.005 107.852,264.110 107.748,265.600 108.600 C 266.150 108.914,266.870 109.163,267.200 109.153 C 267.530 109.143,267.080 108.795,266.200 108.378 C 263.589 107.142,259.611 107.350,256.400 108.890 M164.200 111.174 C 155.075 114.332,151.192 116.994,145.720 123.842 C 142.022 128.472,141.569 128.863,137.918 130.589 C 132.733 133.039,127.489 139.341,127.634 142.946 C 127.664 143.689,127.710 143.666,127.982 142.767 C 129.672 137.192,132.976 133.397,138.435 130.764 C 141.871 129.106,142.266 128.782,145.010 125.372 C 151.819 116.912,158.715 112.498,168.600 110.273 C 169.226 110.132,169.183 110.090,168.400 110.080 C 167.850 110.073,165.960 110.565,164.200 111.174 M127.050 145.650 C 126.731 147.243,126.787 153.193,127.145 155.800 C 127.311 157.012,127.415 155.159,127.409 151.101 C 127.399 143.750,127.407 143.866,127.050 145.650 M127.888 162.800 C 127.991 165.110,128.310 168.350,128.595 170.000 C 129.314 174.160,129.319 172.393,128.604 166.617 C 128.275 163.968,127.938 161.080,127.853 160.200 C 127.769 159.320,127.784 160.490,127.888 162.800 M129.272 176.800 C 129.235 178.230,129.474 181.184,129.802 183.365 C 130.131 185.546,130.425 187.976,130.454 188.765 C 130.495 189.837,130.555 189.953,130.692 189.223 C 130.793 188.685,130.586 185.895,130.231 183.023 C 129.876 180.150,129.531 176.990,129.463 176.000 C 129.372 174.676,129.322 174.888,129.272 176.800 M130.884 193.800 C 130.852 195.120,131.013 197.550,131.244 199.200 C 131.475 200.850,131.803 203.640,131.974 205.400 C 132.260 208.344,132.290 208.423,132.343 206.384 C 132.374 205.165,132.134 202.195,131.808 199.784 C 131.483 197.373,131.155 194.500,131.081 193.400 C 130.947 191.445,130.943 191.454,130.884 193.800 M257.818 201.382 C 259.099 202.663,259.064 203.306,257.400 209.142 C 255.440 216.017,254.908 216.734,252.155 216.218 C 250.155 215.843,249.352 214.430,249.914 212.276 C 250.154 211.354,250.605 209.610,250.917 208.400 C 252.843 200.911,255.076 198.640,257.818 201.382 M128.476 224.983 C 128.434 226.514,128.669 229.934,128.998 232.583 C 129.327 235.232,129.654 238.390,129.724 239.600 C 129.850 241.758,129.853 241.749,129.926 239.137 C 129.967 237.672,129.732 234.342,129.404 231.737 C 129.077 229.132,128.751 225.920,128.680 224.600 L 128.551 222.200 128.476 224.983 M130.056 245.471 C 130.025 246.610,130.189 248.904,130.421 250.569 C 130.653 252.234,130.986 255.982,131.162 258.898 C 131.445 263.581,131.488 263.803,131.531 260.800 C 131.558 258.930,131.392 255.600,131.162 253.400 C 130.047 242.707,130.117 243.211,130.056 245.471 M131.662 268.400 C 131.631 269.390,131.875 272.353,132.203 274.985 C 132.531 277.616,132.830 280.766,132.867 281.985 C 132.925 283.886,132.958 283.973,133.101 282.600 C 133.193 281.720,133.049 279.020,132.781 276.600 C 132.514 274.180,132.165 270.940,132.006 269.400 C 131.774 267.153,131.706 266.956,131.662 268.400 M133.405 286.600 C 133.876 290.284,134.814 294.457,134.574 291.800 C 134.455 290.480,134.097 288.410,133.779 287.200 C 133.324 285.469,133.245 285.341,133.405 286.600 " stroke="none" fill="#a16849" fill-rule="evenodd"></path><path id="path2" d="M168.161 48.777 C 163.548 51.423,159.971 57.307,158.765 64.234 C 158.243 67.233,157.973 67.325,155.815 65.239 C 149.966 59.585,141.454 61.250,137.604 68.800 C 134.177 75.520,134.266 85.805,137.802 91.839 C 139.892 95.405,138.458 94.958,134.173 90.709 C 128.347 84.931,122.021 84.538,117.389 89.665 C 114.595 92.758,114.334 93.869,114.475 102.113 L 114.600 109.400 116.080 112.400 C 119.889 120.120,125.440 123.442,131.842 121.834 C 138.307 120.210,140.358 122.381,134.865 125.034 C 125.854 129.387,120.400 138.859,120.400 150.155 C 120.400 153.891,121.874 172.273,122.219 172.830 C 122.323 172.998,122.593 175.535,122.819 178.468 C 123.045 181.401,123.408 184.790,123.626 186.000 C 123.843 187.210,124.201 191.080,124.420 194.600 C 124.640 198.120,125.001 201.990,125.224 203.200 C 125.446 204.410,125.803 208.399,126.018 212.063 C 126.232 215.728,126.591 219.688,126.815 220.863 C 127.039 222.039,127.398 226.150,127.612 230.000 C 127.826 233.850,128.181 238.080,128.402 239.400 C 128.622 240.720,128.983 245.220,129.204 249.400 C 129.424 253.580,129.787 258.473,130.010 260.273 C 130.233 262.073,130.584 267.071,130.789 271.381 C 130.994 275.690,131.242 279.347,131.340 279.508 C 131.438 279.669,131.721 281.870,131.970 284.400 C 134.901 314.258,150.298 337.962,170.136 343.158 C 178.519 345.354,192.772 344.532,202.000 341.321 C 222.600 334.153,238.206 317.888,244.974 296.533 C 247.357 289.014,248.131 285.301,249.822 273.259 C 250.141 270.982,250.495 268.970,250.607 268.788 C 250.720 268.607,251.076 266.575,251.399 264.273 C 251.722 261.971,252.159 259.635,252.369 259.081 C 252.580 258.528,252.878 256.933,253.032 255.537 C 253.186 254.142,253.477 252.557,253.679 252.014 C 253.880 251.472,254.303 249.402,254.619 247.414 C 254.934 245.427,255.367 243.080,255.581 242.200 C 255.795 241.320,256.352 238.890,256.818 236.800 C 263.043 208.936,268.157 194.190,275.128 184.000 C 286.702 167.081,291.444 133.134,283.878 121.351 C 281.958 118.359,272.631 110.240,268.806 108.231 C 259.424 103.302,247.932 109.880,243.358 122.800 C 237.892 138.239,235.660 142.499,230.253 147.811 C 225.745 152.240,220.742 153.090,218.897 149.739 C 216.787 145.906,216.376 134.560,218.066 126.800 C 219.018 122.428,217.071 116.258,213.675 112.882 C 202.651 101.925,194.498 98.978,181.400 101.215 C 180.080 101.440,177.560 101.795,175.800 102.004 C 170.703 102.608,161.906 104.748,159.200 106.042 C 158.870 106.200,157.520 106.837,156.200 107.459 C 154.046 108.473,150.238 110.881,147.646 112.869 C 146.146 114.019,146.000 113.801,146.000 110.421 C 146.000 106.508,144.617 101.798,142.580 98.771 C 140.910 96.288,141.065 95.939,143.316 97.111 C 145.955 98.484,148.064 98.879,150.204 98.399 C 151.227 98.170,153.535 98.019,155.332 98.065 C 161.067 98.209,164.471 94.993,165.986 88.000 C 166.976 83.434,166.587 83.810,170.410 83.725 C 181.035 83.491,181.411 83.439,183.787 81.861 C 186.537 80.035,186.338 80.010,188.177 82.422 C 191.402 86.650,196.484 88.897,200.308 87.786 C 201.782 87.357,203.156 87.237,204.565 87.413 C 216.510 88.905,220.930 67.021,210.240 59.309 C 209.118 58.499,207.090 56.714,205.733 55.343 C 201.085 50.643,194.576 50.440,189.796 54.846 L 187.945 56.553 186.097 55.577 C 185.081 55.039,183.159 53.485,181.825 52.123 C 177.204 47.404,172.544 46.263,168.161 48.777 M176.133 49.209 C 177.633 49.770,178.957 50.700,180.448 52.238 C 181.632 53.458,183.421 54.880,184.425 55.397 C 185.429 55.914,186.486 56.622,186.774 56.969 C 187.540 57.891,188.616 57.741,189.358 56.608 C 192.819 51.325,201.326 51.421,205.641 56.792 C 206.382 57.714,207.531 58.695,208.194 58.973 C 216.065 62.272,218.159 76.843,211.781 83.936 C 209.525 86.446,208.095 86.952,204.269 86.594 C 202.543 86.432,200.726 86.493,199.819 86.744 C 196.437 87.677,192.132 85.658,188.854 81.600 C 186.740 78.983,186.255 78.806,184.860 80.142 C 182.855 82.062,180.360 82.869,177.997 82.362 C 176.417 82.023,175.501 82.036,174.147 82.415 C 173.021 82.730,171.368 82.819,169.633 82.658 C 166.356 82.353,166.127 82.536,165.587 85.886 C 164.472 92.812,161.348 97.230,157.542 97.263 C 145.624 97.365,145.855 97.383,143.843 96.204 C 136.065 91.646,133.606 79.349,138.495 69.460 C 142.161 62.048,150.005 60.730,155.652 66.577 C 157.899 68.904,159.596 69.128,159.607 67.100 C 159.667 55.858,168.461 46.339,176.133 49.209 M170.069 55.834 C 164.382 60.702,163.785 74.557,169.167 76.786 C 171.550 77.773,171.989 77.001,171.723 72.298 C 171.447 67.420,172.610 62.839,174.999 59.400 C 177.913 55.203,174.061 52.417,170.069 55.834 M174.925 56.317 C 175.529 56.985,175.478 57.195,174.179 59.351 C 171.714 63.443,171.094 65.672,171.024 70.699 C 170.956 75.549,170.657 76.380,169.247 75.625 C 166.647 74.234,165.894 63.910,168.089 59.739 C 169.981 56.144,173.276 54.495,174.925 56.317 M195.600 58.903 C 189.373 62.135,190.436 80.800,196.846 80.800 C 198.345 80.800,198.495 80.028,197.743 76.198 C 196.926 72.041,197.606 67.370,199.580 63.577 C 200.251 62.288,200.800 60.983,200.800 60.678 C 200.800 59.137,197.392 57.973,195.600 58.903 M199.120 60.080 C 199.837 60.797,199.709 61.716,198.594 63.865 C 196.967 67.001,196.187 71.637,196.721 75.000 C 196.966 76.540,197.218 78.160,197.283 78.600 C 197.454 79.769,195.959 79.843,194.951 78.717 C 191.289 74.619,191.628 62.282,195.464 60.052 C 196.459 59.474,198.530 59.490,199.120 60.080 M146.908 68.691 C 140.183 69.913,140.194 90.562,146.920 91.124 C 148.811 91.283,149.044 90.719,148.227 87.968 C 146.917 83.554,147.851 77.178,150.411 73.060 C 152.289 70.038,150.662 68.009,146.908 68.691 M150.151 70.490 C 150.487 71.026,150.346 71.650,149.522 73.290 C 147.196 77.917,146.998 78.724,147.039 83.387 C 147.061 85.814,147.284 88.301,147.535 88.914 C 148.200 90.539,147.098 90.836,145.629 89.428 C 141.979 85.931,141.980 74.737,145.631 70.878 C 147.042 69.386,149.336 69.189,150.151 70.490 M128.022 87.664 C 130.127 88.369,131.151 89.055,133.600 91.397 C 135.250 92.975,137.267 94.666,138.082 95.155 C 142.312 97.690,145.010 103.846,144.984 110.900 C 144.965 116.141,145.000 116.156,149.427 112.780 C 157.610 106.539,167.452 103.621,185.767 102.005 C 194.136 101.266,201.205 103.141,205.952 107.357 C 206.998 108.286,208.930 109.801,210.245 110.724 C 216.434 115.065,218.338 120.597,216.813 129.800 C 215.140 139.888,216.657 150.535,220.022 152.316 C 226.704 155.854,237.059 144.604,242.770 127.600 C 249.156 108.588,260.935 102.213,272.273 111.634 C 273.333 112.514,275.839 114.564,277.842 116.189 C 281.983 119.548,283.948 122.202,285.485 126.508 C 287.009 130.780,287.103 148.324,285.636 154.600 C 282.754 166.920,279.300 175.614,273.396 185.400 C 269.932 191.144,269.207 192.550,267.362 197.109 C 263.187 207.423,258.126 225.774,254.817 242.600 C 254.342 245.020,253.702 248.170,253.397 249.600 C 253.091 251.030,252.736 252.920,252.607 253.800 C 252.479 254.680,252.117 256.660,251.805 258.200 C 251.012 262.102,249.781 269.218,248.793 275.600 C 246.533 290.209,245.362 294.590,241.097 304.400 C 231.366 326.781,209.270 342.527,186.787 343.103 C 170.743 343.514,163.446 341.243,154.373 333.018 C 140.434 320.383,133.690 301.556,131.583 269.400 C 131.367 266.100,131.012 260.970,130.795 258.000 C 130.578 255.030,130.214 249.990,129.988 246.800 C 129.761 243.610,129.311 238.300,128.989 235.000 C 128.667 231.700,128.217 226.210,127.989 222.800 C 127.762 219.390,127.499 216.330,127.405 216.000 C 127.310 215.670,126.947 211.633,126.596 207.028 C 126.246 202.424,125.891 198.547,125.808 198.414 C 125.726 198.280,125.460 195.297,125.219 191.785 C 124.977 188.273,124.524 183.330,124.211 180.800 C 121.843 161.618,121.108 149.317,122.022 144.173 C 123.436 136.220,128.230 129.493,134.837 126.194 C 142.736 122.249,139.855 119.156,129.961 120.957 C 124.960 121.868,119.570 117.879,116.684 111.131 L 115.200 107.661 115.200 101.495 C 115.200 92.964,116.363 90.464,121.494 87.964 C 124.305 86.594,124.766 86.573,128.022 87.664 M123.277 93.610 C 118.707 96.396,119.749 108.122,125.036 113.410 C 127.697 116.071,129.222 114.230,127.306 110.669 C 126.100 108.427,126.337 100.395,127.691 97.631 C 128.895 95.174,128.733 94.400,126.808 93.404 C 125.287 92.618,124.864 92.642,123.277 93.610 M126.711 94.623 C 127.818 95.398,127.819 95.813,126.720 98.249 C 125.597 100.740,125.494 107.901,126.539 110.800 C 128.212 115.437,125.517 113.554,123.105 108.400 C 119.750 101.232,122.290 91.526,126.711 94.623 M172.800 109.648 C 159.005 112.803,153.912 115.384,147.967 122.233 C 146.646 123.755,144.700 125.990,143.643 127.200 C 142.510 128.498,140.917 129.784,139.761 130.335 C 135.562 132.337,135.039 132.653,133.202 134.290 C 127.529 139.344,126.225 148.902,128.795 166.600 C 129.019 168.140,129.365 171.560,129.565 174.200 C 129.765 176.840,130.216 181.790,130.568 185.200 C 132.128 200.309,132.450 203.741,132.822 209.200 C 133.039 212.390,133.298 215.225,133.396 215.501 C 133.495 215.776,133.856 220.096,134.198 225.101 C 134.541 230.105,134.901 234.426,134.999 234.701 C 135.096 234.977,135.366 238.397,135.597 242.301 C 135.829 246.206,136.193 251.042,136.405 253.048 C 136.618 255.055,136.978 260.185,137.205 264.448 C 138.905 296.328,144.095 313.938,155.139 325.300 C 159.237 329.515,159.384 328.428,155.605 321.859 C 147.205 307.256,145.032 297.530,142.994 265.400 C 142.659 260.120,141.938 250.310,141.392 243.600 C 140.845 236.890,140.039 226.990,139.600 221.600 C 139.162 216.210,138.618 209.910,138.392 207.600 C 138.166 205.290,137.810 201.150,137.600 198.400 C 137.390 195.650,136.954 190.700,136.630 187.400 C 136.306 184.100,135.666 177.440,135.208 172.600 C 134.750 167.760,134.082 161.068,133.724 157.728 C 132.454 145.906,135.209 138.867,143.338 133.158 C 144.871 132.081,146.343 131.200,146.609 131.200 C 147.465 131.200,149.113 129.642,153.787 124.414 C 160.082 117.374,162.962 115.288,169.800 112.818 C 171.120 112.341,172.920 111.610,173.800 111.194 C 174.680 110.777,176.349 110.364,177.509 110.276 C 179.829 110.100,180.488 109.754,179.588 109.184 C 178.716 108.632,176.609 108.776,172.800 109.648 M165.400 113.645 C 161.047 115.846,157.277 119.133,152.510 124.885 C 149.822 128.128,147.638 130.071,145.738 130.908 C 134.971 135.652,131.505 144.816,133.525 163.200 C 134.140 168.794,134.694 174.727,135.393 183.200 C 135.710 187.050,136.079 190.920,136.212 191.800 C 136.344 192.680,136.704 196.640,137.012 200.600 C 137.319 204.560,138.024 213.290,138.579 220.000 C 139.134 226.710,139.947 236.610,140.387 242.000 C 140.826 247.390,141.459 255.072,141.793 259.071 C 142.127 263.070,142.400 267.569,142.400 269.069 C 142.400 280.158,144.990 297.394,148.011 306.400 C 149.936 312.140,150.380 313.246,152.650 317.944 C 154.867 322.532,155.167 323.878,153.506 321.777 C 145.258 311.350,140.724 296.863,139.180 276.000 C 138.928 272.590,138.654 269.691,138.572 269.557 C 138.490 269.424,138.232 265.293,137.999 260.379 C 137.766 255.464,137.397 250.264,137.180 248.822 C 136.964 247.380,136.609 242.980,136.393 239.044 C 136.176 235.108,135.818 230.788,135.595 229.444 C 135.373 228.100,135.014 223.833,134.797 219.963 C 134.581 216.093,134.220 211.958,133.995 210.775 C 133.771 209.591,133.409 205.828,133.191 202.412 C 132.972 198.995,132.529 194.400,132.205 192.200 C 131.881 190.000,131.611 187.030,131.605 185.600 C 131.600 184.170,131.329 181.235,131.004 179.077 C 130.679 176.920,130.234 172.510,130.015 169.277 C 129.796 166.045,129.406 162.320,129.148 161.000 C 128.248 156.389,128.462 144.554,129.494 141.902 C 131.487 136.775,133.658 134.479,139.069 131.776 C 142.512 130.056,143.150 129.557,145.147 127.027 C 150.384 120.392,156.379 115.499,161.126 113.987 C 161.717 113.799,162.920 113.373,163.800 113.040 C 166.977 111.839,168.119 112.271,165.400 113.645 M258.413 114.549 C 253.605 117.121,251.660 120.388,246.562 134.455 C 243.320 143.401,238.076 151.082,232.300 155.344 C 227.968 158.541,228.218 159.736,233.045 158.909 C 241.503 157.461,248.955 147.849,254.995 130.600 C 257.099 124.589,260.216 119.229,262.826 117.131 C 266.562 114.129,263.046 112.071,258.413 114.549 M263.068 115.032 C 263.228 115.449,262.629 116.366,261.304 117.732 C 258.388 120.737,256.379 124.408,254.221 130.670 C 248.841 146.286,241.100 156.584,233.688 157.986 C 231.101 158.475,230.824 157.949,232.823 156.349 C 240.710 150.037,245.193 142.548,250.153 127.400 C 251.290 123.927,253.461 120.133,255.481 118.091 C 258.451 115.086,262.467 113.467,263.068 115.032 " stroke="none" fill="#a7a3a3" fill-rule="evenodd"></path><path id="path3" d="M182.647 54.600 C 186.226 57.998,187.478 58.675,188.611 57.829 C 189.377 57.257,189.373 57.247,188.481 57.472 C 187.871 57.625,187.265 57.432,186.681 56.898 C 186.196 56.456,185.170 55.782,184.400 55.401 C 183.630 55.020,182.541 54.324,181.981 53.854 C 181.420 53.384,181.720 53.720,182.647 54.600 M204.400 55.800 C 205.146 56.570,205.847 57.200,205.957 57.200 C 206.067 57.200,205.546 56.570,204.800 55.800 C 204.054 55.030,203.353 54.400,203.243 54.400 C 203.133 54.400,203.654 55.030,204.400 55.800 M175.700 55.431 C 176.677 56.592,176.584 57.118,174.999 59.400 C 172.611 62.838,171.447 67.420,171.723 72.293 C 171.925 75.870,171.869 76.436,171.277 76.781 C 170.905 76.998,170.797 77.181,171.038 77.188 C 172.325 77.224,172.845 75.727,172.579 72.746 C 172.159 68.029,173.617 62.368,176.055 59.246 C 177.069 57.948,177.003 56.295,175.900 55.362 C 175.001 54.601,175.001 54.601,175.700 55.431 M168.975 56.500 L 167.800 57.800 169.100 56.625 C 170.312 55.530,170.584 55.200,170.275 55.200 C 170.206 55.200,169.621 55.785,168.975 56.500 M207.105 58.600 C 212.337 63.024,213.113 64.210,214.236 69.500 C 216.087 78.221,211.995 85.602,205.086 86.005 L 201.400 86.220 204.278 86.548 C 208.061 86.980,209.493 86.482,211.781 83.936 C 218.063 76.949,216.081 62.322,208.411 59.073 C 207.855 58.838,207.121 58.455,206.779 58.223 C 206.438 57.990,206.584 58.160,207.105 58.600 M199.664 63.336 C 197.573 67.651,196.921 72.016,197.743 76.198 C 198.540 80.255,198.365 80.930,196.571 80.721 C 195.848 80.636,195.344 80.710,195.452 80.884 C 195.764 81.389,197.921 81.249,198.276 80.700 C 198.454 80.425,198.600 77.410,198.600 74.000 C 198.600 67.807,198.602 67.797,199.935 64.953 C 200.669 63.387,201.209 61.762,201.135 61.342 C 201.045 60.831,200.559 61.490,199.664 63.336 M147.100 63.082 C 147.595 63.178,148.405 63.178,148.900 63.082 C 149.395 62.987,148.990 62.909,148.000 62.909 C 147.010 62.909,146.605 62.987,147.100 63.082 M143.344 63.969 C 142.653 64.390,141.947 64.975,141.775 65.268 C 141.603 65.560,141.814 65.493,142.243 65.118 C 142.673 64.742,143.648 64.165,144.412 63.833 C 145.175 63.502,145.530 63.225,145.200 63.217 C 144.870 63.209,144.035 63.548,143.344 63.969 M165.293 65.600 C 165.293 66.370,165.375 66.685,165.476 66.300 C 165.576 65.915,165.576 65.285,165.476 64.900 C 165.375 64.515,165.293 64.830,165.293 65.600 M159.667 66.700 C 159.595 68.525,158.169 69.121,156.799 67.900 C 156.327 67.479,156.317 67.504,156.732 68.057 C 158.127 69.912,160.141 68.975,159.896 66.584 L 159.734 65.000 159.667 66.700 M165.301 69.000 C 165.305 69.880,165.387 70.193,165.483 69.695 C 165.579 69.198,165.575 68.478,165.475 68.095 C 165.375 67.713,165.296 68.120,165.301 69.000 M138.600 69.200 C 138.259 69.860,138.069 70.400,138.179 70.400 C 138.289 70.400,138.659 69.860,139.000 69.200 C 139.341 68.540,139.531 68.000,139.421 68.000 C 139.311 68.000,138.941 68.540,138.600 69.200 M151.224 70.025 C 151.598 70.903,151.484 71.334,150.429 73.031 C 147.851 77.178,146.913 83.541,148.227 87.968 C 148.976 90.489,148.814 91.087,147.324 91.311 L 146.200 91.480 147.291 91.540 C 149.191 91.644,149.777 90.200,149.021 87.281 C 147.962 83.195,148.643 78.189,150.835 73.944 C 152.167 71.365,152.235 70.854,151.393 69.776 C 150.824 69.048,150.814 69.063,151.224 70.025 M141.309 80.000 C 141.309 80.990,141.387 81.395,141.482 80.900 C 141.578 80.405,141.578 79.595,141.482 79.100 C 141.387 78.605,141.309 79.010,141.309 80.000 M184.609 79.190 C 183.299 80.638,180.705 81.597,177.974 81.644 L 175.400 81.688 177.600 82.241 C 180.220 82.899,182.363 82.311,184.647 80.305 C 185.559 79.505,186.280 79.180,186.827 79.323 C 187.499 79.499,187.561 79.435,187.174 78.969 C 186.511 78.170,185.449 78.262,184.609 79.190 M190.200 83.200 C 191.059 84.080,191.852 84.800,191.962 84.800 C 192.072 84.800,191.459 84.080,190.600 83.200 C 189.741 82.320,188.948 81.600,188.838 81.600 C 188.728 81.600,189.341 82.320,190.200 83.200 M165.471 82.587 C 165.132 82.925,164.764 84.404,164.600 86.087 C 163.948 92.766,160.692 96.388,155.320 96.412 C 151.891 96.427,152.790 97.204,156.351 97.303 C 160.658 97.422,163.759 94.237,165.021 88.400 C 165.377 86.750,165.795 84.862,165.948 84.205 C 166.108 83.519,166.647 82.798,167.214 82.511 L 168.200 82.012 167.129 82.006 C 166.539 82.003,165.793 82.264,165.471 82.587 M124.100 87.076 C 124.485 87.176,125.115 87.176,125.500 87.076 C 125.885 86.975,125.570 86.893,124.800 86.893 C 124.030 86.893,123.715 86.975,124.100 87.076 M137.044 95.000 C 143.009 100.896,145.123 106.381,143.974 112.981 C 143.310 116.794,145.188 117.383,147.925 114.220 C 148.485 113.573,148.403 113.590,147.446 114.320 C 145.204 116.030,144.967 115.700,144.984 110.900 C 145.010 103.844,142.305 97.675,138.082 95.161 C 137.267 94.675,135.789 93.540,134.798 92.639 C 133.808 91.738,134.818 92.800,137.044 95.000 M128.139 94.410 C 128.736 95.360,128.711 95.548,127.701 97.610 C 126.367 100.334,126.095 108.410,127.263 110.600 C 128.490 112.898,128.583 114.354,127.532 114.776 C 126.894 115.032,126.810 115.157,127.267 115.175 C 129.377 115.255,129.615 114.360,128.403 110.912 C 127.285 107.732,126.991 103.119,127.745 100.600 C 128.075 99.500,128.574 97.833,128.856 96.895 C 129.337 95.292,129.312 95.136,128.436 94.295 L 127.504 93.400 128.139 94.410 M144.576 96.578 C 145.004 96.920,145.634 97.186,145.976 97.168 C 146.515 97.141,146.518 97.107,146.000 96.914 C 145.670 96.792,145.040 96.526,144.600 96.324 C 143.813 95.962,143.812 95.966,144.576 96.578 M147.700 97.476 C 148.085 97.576,148.715 97.576,149.100 97.476 C 149.485 97.375,149.170 97.293,148.400 97.293 C 147.630 97.293,147.315 97.375,147.700 97.476 M120.131 101.000 C 120.133 102.540,120.205 103.121,120.292 102.291 C 120.379 101.461,120.377 100.201,120.289 99.491 C 120.200 98.781,120.129 99.460,120.131 101.000 M189.105 101.883 C 189.602 101.979,190.322 101.975,190.705 101.875 C 191.087 101.775,190.680 101.696,189.800 101.701 C 188.920 101.705,188.607 101.787,189.105 101.883 M183.905 102.283 C 184.402 102.379,185.122 102.375,185.505 102.275 C 185.887 102.175,185.480 102.096,184.600 102.101 C 183.720 102.105,183.407 102.187,183.905 102.283 M176.900 103.076 C 177.285 103.176,177.915 103.176,178.300 103.076 C 178.685 102.975,178.370 102.893,177.600 102.893 C 176.830 102.893,176.515 102.975,176.900 103.076 M261.100 107.482 C 261.595 107.578,262.405 107.578,262.900 107.482 C 263.395 107.387,262.990 107.309,262.000 107.309 C 261.010 107.309,260.605 107.387,261.100 107.482 M184.400 108.217 C 183.190 108.519,181.480 108.776,180.600 108.789 C 179.452 108.806,179.166 108.917,179.588 109.184 C 180.488 109.754,179.829 110.100,177.509 110.276 C 176.349 110.364,174.680 110.777,173.800 111.194 C 172.920 111.610,171.120 112.341,169.800 112.818 C 162.962 115.288,160.082 117.374,153.787 124.414 C 149.113 129.642,147.465 131.200,146.609 131.200 C 146.343 131.200,144.871 132.081,143.338 133.158 C 135.209 138.867,132.454 145.906,133.724 157.728 C 134.082 161.068,134.750 167.760,135.208 172.600 C 135.666 177.440,136.306 184.100,136.630 187.400 C 136.954 190.700,137.390 195.650,137.600 198.400 C 137.810 201.150,138.166 205.290,138.392 207.600 C 138.618 209.910,139.162 216.210,139.600 221.600 C 140.039 226.990,140.845 236.890,141.392 243.600 C 141.938 250.310,142.659 260.120,142.994 265.400 C 145.032 297.530,147.205 307.256,155.605 321.859 C 159.413 328.480,159.263 329.354,155.012 325.300 L 152.600 323.000 155.000 325.548 C 157.177 327.859,160.465 330.400,161.278 330.400 C 161.725 330.400,161.684 328.899,161.229 328.618 C 160.850 328.383,155.600 320.587,155.600 320.258 C 155.600 320.159,155.012 319.025,154.294 317.738 C 148.118 306.676,145.649 293.999,143.986 264.800 C 143.767 260.950,143.136 252.580,142.583 246.200 C 142.030 239.820,141.400 231.990,141.183 228.800 C 140.966 225.610,140.532 220.750,140.218 218.000 C 139.904 215.250,139.546 211.020,139.421 208.600 C 139.296 206.180,139.016 203.120,138.797 201.800 C 138.579 200.480,138.213 196.462,137.984 192.870 C 137.755 189.279,137.386 185.409,137.163 184.270 C 136.940 183.132,136.588 179.455,136.381 176.099 C 136.173 172.743,135.828 169.233,135.614 168.299 C 134.884 165.120,134.241 150.823,134.690 147.794 C 135.617 141.559,140.170 135.461,146.176 132.412 C 148.329 131.320,149.592 130.263,152.149 127.413 C 159.526 119.193,164.380 115.264,168.600 114.095 C 169.480 113.852,171.460 113.184,173.000 112.611 C 174.540 112.038,177.850 111.227,180.356 110.809 C 182.862 110.390,185.103 109.857,185.336 109.624 C 185.571 109.389,187.372 109.197,189.380 109.194 C 193.173 109.187,194.731 108.749,193.600 108.006 C 192.738 107.440,186.984 107.572,184.400 108.217 M210.049 111.146 C 215.813 116.424,217.355 121.338,215.800 129.465 C 214.133 138.179,215.507 148.824,218.659 151.600 C 219.377 152.233,219.557 152.306,219.149 151.800 C 216.322 148.299,215.316 138.824,216.813 129.800 C 218.358 120.479,216.479 115.149,210.041 110.590 L 207.400 108.719 210.049 111.146 M172.200 109.600 C 171.696 109.817,171.622 109.944,172.000 109.944 C 172.330 109.944,172.960 109.789,173.400 109.600 C 173.904 109.383,173.978 109.256,173.600 109.256 C 173.270 109.256,172.640 109.411,172.200 109.600 M250.800 112.600 C 249.828 113.590,249.123 114.400,249.233 114.400 C 249.343 114.400,250.228 113.590,251.200 112.600 C 252.172 111.610,252.877 110.800,252.767 110.800 C 252.657 110.800,251.772 111.610,250.800 112.600 M274.000 113.400 C 274.746 114.170,275.447 114.800,275.557 114.800 C 275.667 114.800,275.146 114.170,274.400 113.400 C 273.654 112.630,272.953 112.000,272.843 112.000 C 272.733 112.000,273.254 112.630,274.000 113.400 M261.100 113.482 C 261.595 113.578,262.405 113.578,262.900 113.482 C 263.395 113.387,262.990 113.309,262.000 113.309 C 261.010 113.309,260.605 113.387,261.100 113.482 M264.358 114.149 C 264.998 114.920,264.590 115.713,262.826 117.131 C 260.216 119.229,257.099 124.589,254.995 130.600 C 249.331 146.776,242.132 156.621,234.516 158.605 C 230.173 159.736,228.131 159.083,229.851 157.113 C 230.600 156.256,230.599 156.256,229.663 156.891 C 226.713 158.893,227.235 160.235,230.923 160.128 C 239.897 159.866,248.120 151.131,254.011 135.600 C 254.720 133.730,255.548 131.633,255.850 130.940 C 256.153 130.246,256.400 129.470,256.400 129.215 C 256.400 127.304,260.607 120.513,263.499 117.757 C 265.710 115.649,266.134 113.600,264.360 113.600 C 264.017 113.600,264.017 113.738,264.358 114.149 M278.843 117.831 C 284.669 123.896,285.676 126.894,285.891 138.800 C 286.045 147.353,285.933 148.957,284.791 154.600 C 282.925 163.821,277.493 177.184,272.049 185.949 C 268.640 191.438,266.343 196.685,263.043 206.529 C 259.336 217.585,255.325 233.863,252.825 248.000 C 252.339 250.750,251.759 253.810,251.538 254.800 C 251.316 255.790,250.890 258.220,250.592 260.200 C 250.294 262.180,249.880 264.354,249.672 265.032 C 249.465 265.710,249.161 267.600,248.998 269.232 C 248.835 270.864,248.544 272.615,248.352 273.122 C 248.160 273.630,247.820 275.700,247.597 277.722 C 247.374 279.745,246.932 282.570,246.615 284.000 C 246.298 285.430,245.865 287.500,245.653 288.600 C 241.061 312.417,223.595 332.127,200.000 340.119 C 193.011 342.486,193.106 342.470,184.200 342.817 L 176.600 343.114 185.400 343.020 L 194.200 342.926 199.000 341.436 C 218.318 335.443,233.350 322.218,241.097 304.400 C 245.362 294.590,246.533 290.209,248.793 275.600 C 249.781 269.218,251.012 262.102,251.805 258.200 C 252.117 256.660,252.479 254.680,252.607 253.800 C 252.736 252.920,253.091 251.030,253.397 249.600 C 253.702 248.170,254.342 245.020,254.817 242.600 C 258.126 225.774,263.187 207.423,267.362 197.109 C 269.207 192.550,269.932 191.144,273.396 185.400 C 279.301 175.611,282.763 166.897,285.634 154.600 C 287.148 148.112,287.054 131.188,285.478 126.600 C 284.051 122.444,282.007 119.558,278.574 116.850 L 275.800 114.663 278.843 117.831 M120.800 117.400 C 121.995 118.610,123.063 119.600,123.173 119.600 C 123.283 119.600,122.395 118.610,121.200 117.400 C 120.005 116.190,118.937 115.200,118.827 115.200 C 118.717 115.200,119.605 116.190,120.800 117.400 M134.400 120.001 L 132.200 120.202 135.241 120.491 C 138.976 120.846,139.600 121.071,139.600 122.066 C 139.600 122.496,139.780 122.736,140.000 122.600 C 140.220 122.464,140.400 121.841,140.400 121.215 C 140.400 119.920,138.809 119.598,134.400 120.001 M127.900 121.082 C 128.395 121.178,129.205 121.178,129.700 121.082 C 130.195 120.987,129.790 120.909,128.800 120.909 C 127.810 120.909,127.405 120.987,127.900 121.082 M147.578 122.300 L 146.200 123.800 147.700 122.422 C 148.525 121.663,149.200 120.988,149.200 120.922 C 149.200 120.616,148.862 120.904,147.578 122.300 M136.000 125.600 C 135.230 126.022,134.744 126.374,134.920 126.383 C 135.344 126.405,137.600 125.232,137.600 124.990 C 137.600 124.728,137.577 124.737,136.000 125.600 M128.987 130.500 L 126.600 133.000 129.100 130.613 C 131.422 128.395,131.783 128.000,131.487 128.000 C 131.426 128.000,130.301 129.125,128.987 130.500 M121.693 146.800 C 121.693 147.570,121.775 147.885,121.876 147.500 C 121.976 147.115,121.976 146.485,121.876 146.100 C 121.775 145.715,121.693 146.030,121.693 146.800 M231.387 148.100 L 229.000 150.600 231.500 148.213 C 232.875 146.899,234.000 145.774,234.000 145.713 C 234.000 145.417,233.605 145.778,231.387 148.100 M127.301 152.600 C 127.305 153.480,127.387 153.793,127.483 153.295 C 127.579 152.798,127.575 152.078,127.475 151.695 C 127.375 151.313,127.296 151.720,127.301 152.600 M121.720 154.400 C 121.720 155.610,121.795 156.105,121.887 155.500 C 121.978 154.895,121.978 153.905,121.887 153.300 C 121.795 152.695,121.720 153.190,121.720 154.400 M220.421 152.821 C 220.955 153.160,223.942 153.381,223.567 153.055 C 223.475 152.975,222.599 152.808,221.621 152.682 C 220.470 152.535,220.046 152.584,220.421 152.821 M122.101 160.200 C 122.105 161.080,122.187 161.393,122.283 160.895 C 122.379 160.398,122.375 159.678,122.275 159.295 C 122.175 158.913,122.096 159.320,122.101 160.200 M122.493 165.200 C 122.493 165.970,122.575 166.285,122.676 165.900 C 122.776 165.515,122.776 164.885,122.676 164.500 C 122.575 164.115,122.493 164.430,122.493 165.200 M123.293 172.000 C 123.293 172.770,123.375 173.085,123.476 172.700 C 123.576 172.315,123.576 171.685,123.476 171.300 C 123.375 170.915,123.293 171.230,123.293 172.000 M129.293 173.200 C 129.293 173.970,129.375 174.285,129.476 173.900 C 129.576 173.515,129.576 172.885,129.476 172.500 C 129.375 172.115,129.293 172.430,129.293 173.200 M123.709 176.400 C 123.709 177.390,123.787 177.795,123.882 177.300 C 123.978 176.805,123.978 175.995,123.882 175.500 C 123.787 175.005,123.709 175.410,123.709 176.400 M124.901 187.000 C 124.905 187.880,124.987 188.193,125.083 187.695 C 125.179 187.198,125.175 186.478,125.075 186.095 C 124.975 185.713,124.896 186.120,124.901 187.000 M130.909 190.000 C 130.909 190.990,130.987 191.395,131.082 190.900 C 131.178 190.405,131.178 189.595,131.082 189.100 C 130.987 188.605,130.909 189.010,130.909 190.000 M125.309 193.200 C 125.309 194.190,125.387 194.595,125.482 194.100 C 125.578 193.605,125.578 192.795,125.482 192.300 C 125.387 191.805,125.309 192.210,125.309 193.200 M131.293 195.600 C 131.293 196.370,131.375 196.685,131.476 196.300 C 131.576 195.915,131.576 195.285,131.476 194.900 C 131.375 194.515,131.293 194.830,131.293 195.600 M125.693 197.200 C 125.693 197.970,125.775 198.285,125.876 197.900 C 125.976 197.515,125.976 196.885,125.876 196.500 C 125.775 196.115,125.693 196.430,125.693 197.200 M126.093 200.400 C 126.093 201.170,126.175 201.485,126.276 201.100 C 126.376 200.715,126.376 200.085,126.276 199.700 C 126.175 199.315,126.093 199.630,126.093 200.400 M126.509 205.200 C 126.509 206.190,126.587 206.595,126.682 206.100 C 126.778 205.605,126.778 204.795,126.682 204.300 C 126.587 203.805,126.509 204.210,126.509 205.200 M132.514 207.400 C 132.517 208.500,132.595 208.903,132.687 208.295 C 132.779 207.686,132.777 206.786,132.682 206.295 C 132.587 205.803,132.511 206.300,132.514 207.400 M132.893 213.200 C 132.893 213.970,132.975 214.285,133.076 213.900 C 133.176 213.515,133.176 212.885,133.076 212.500 C 132.975 212.115,132.893 212.430,132.893 213.200 M127.693 218.400 C 127.693 219.170,127.775 219.485,127.876 219.100 C 127.976 218.715,127.976 218.085,127.876 217.700 C 127.775 217.315,127.693 217.630,127.693 218.400 M128.120 224.000 C 128.120 225.210,128.195 225.705,128.287 225.100 C 128.378 224.495,128.378 223.505,128.287 222.900 C 128.195 222.295,128.120 222.790,128.120 224.000 M134.109 226.800 C 134.109 227.790,134.187 228.195,134.282 227.700 C 134.378 227.205,134.378 226.395,134.282 225.900 C 134.187 225.405,134.109 225.810,134.109 226.800 M134.501 232.200 C 134.505 233.080,134.587 233.393,134.683 232.895 C 134.779 232.398,134.775 231.678,134.675 231.295 C 134.575 230.913,134.496 231.320,134.501 232.200 M134.893 236.000 C 134.893 236.770,134.975 237.085,135.076 236.700 C 135.176 236.315,135.176 235.685,135.076 235.300 C 134.975 234.915,134.893 235.230,134.893 236.000 M129.301 237.000 C 129.305 237.880,129.387 238.193,129.483 237.695 C 129.579 237.198,129.575 236.478,129.475 236.095 C 129.375 235.713,129.296 236.120,129.301 237.000 M135.301 239.800 C 135.305 240.680,135.387 240.993,135.483 240.495 C 135.579 239.998,135.575 239.278,135.475 238.895 C 135.375 238.513,135.296 238.920,135.301 239.800 M129.720 243.600 C 129.720 244.810,129.795 245.305,129.887 244.700 C 129.978 244.095,129.978 243.105,129.887 242.500 C 129.795 241.895,129.720 242.390,129.720 243.600 M135.709 247.200 C 135.709 248.190,135.787 248.595,135.882 248.100 C 135.978 247.605,135.978 246.795,135.882 246.300 C 135.787 245.805,135.709 246.210,135.709 247.200 M136.101 252.600 C 136.105 253.480,136.187 253.793,136.283 253.295 C 136.379 252.798,136.375 252.078,136.275 251.695 C 136.175 251.313,136.096 251.720,136.101 252.600 M130.493 253.200 C 130.493 253.970,130.575 254.285,130.676 253.900 C 130.776 253.515,130.776 252.885,130.676 252.500 C 130.575 252.115,130.493 252.430,130.493 253.200 M136.501 256.600 C 136.505 257.480,136.587 257.793,136.683 257.295 C 136.779 256.798,136.775 256.078,136.675 255.695 C 136.575 255.313,136.496 255.720,136.501 256.600 M130.901 257.800 C 130.905 258.680,130.987 258.993,131.083 258.495 C 131.179 257.998,131.175 257.278,131.075 256.895 C 130.975 256.513,130.896 256.920,130.901 257.800 M136.931 262.600 C 136.933 264.140,137.005 264.721,137.092 263.891 C 137.179 263.061,137.177 261.801,137.089 261.091 C 137.000 260.381,136.929 261.060,136.931 262.600 M131.324 266.200 C 131.326 267.520,131.401 268.012,131.490 267.293 C 131.579 266.574,131.577 265.494,131.486 264.893 C 131.395 264.292,131.322 264.880,131.324 266.200 M137.314 270.200 C 137.317 271.300,137.395 271.703,137.487 271.095 C 137.579 270.486,137.577 269.586,137.482 269.095 C 137.387 268.603,137.311 269.100,137.314 270.200 M131.693 272.800 C 131.693 273.570,131.775 273.885,131.876 273.500 C 131.976 273.115,131.976 272.485,131.876 272.100 C 131.775 271.715,131.693 272.030,131.693 272.800 M137.701 275.400 C 137.705 276.280,137.787 276.593,137.883 276.095 C 137.979 275.598,137.975 274.878,137.875 274.495 C 137.775 274.113,137.696 274.520,137.701 275.400 M138.093 278.800 C 138.093 279.570,138.175 279.885,138.276 279.500 C 138.376 279.115,138.376 278.485,138.276 278.100 C 138.175 277.715,138.093 278.030,138.093 278.800 M132.493 279.600 C 132.493 280.370,132.575 280.685,132.676 280.300 C 132.776 279.915,132.776 279.285,132.676 278.900 C 132.575 278.515,132.493 278.830,132.493 279.600 M138.493 283.200 C 138.493 283.970,138.575 284.285,138.676 283.900 C 138.776 283.515,138.776 282.885,138.676 282.500 C 138.575 282.115,138.493 282.430,138.493 283.200 M151.200 330.200 C 151.946 330.970,152.647 331.600,152.757 331.600 C 152.867 331.600,152.346 330.970,151.600 330.200 C 150.854 329.430,150.153 328.800,150.043 328.800 C 149.933 328.800,150.454 329.430,151.200 330.200 M155.600 334.200 C 156.346 334.970,157.047 335.600,157.157 335.600 C 157.267 335.600,156.746 334.970,156.000 334.200 C 155.254 333.430,154.553 332.800,154.443 332.800 C 154.333 332.800,154.854 333.430,155.600 334.200 M161.200 338.198 C 161.200 338.467,165.249 340.484,165.429 340.305 C 165.511 340.223,164.593 339.673,163.389 339.082 C 162.185 338.492,161.200 338.094,161.200 338.198 " stroke="none" fill="#b5917c" fill-rule="evenodd"></path></g></svg>